<?xml version="1.0" encoding="UTF-8" standalone="no"?>
<!-- Created with Inkscape (http://www.inkscape.org/) -->

<svg
   xmlns:dc="http://purl.org/dc/elements/1.1/"
   xmlns:cc="http://creativecommons.org/ns#"
   xmlns:rdf="http://www.w3.org/1999/02/22-rdf-syntax-ns#"
   xmlns:svg="http://www.w3.org/2000/svg"
   xmlns="http://www.w3.org/2000/svg"
   xmlns:sodipodi="http://sodipodi.sourceforge.net/DTD/sodipodi-0.dtd"
   xmlns:inkscape="http://www.inkscape.org/namespaces/inkscape"
   width="210mm"
   height="297mm"
   viewBox="0 0 210 297"
   version="1.1"
   id="svg8"
   inkscape:export-filename="C:\xampp\htdocs\HeresyDefenders\assets\images\logo.png"
   inkscape:export-xdpi="229.96001"
   inkscape:export-ydpi="229.96001"
   inkscape:version="0.92.1 r15371"
   sodipodi:docname="logo.svg">
  <defs
     id="defs2" />
  <sodipodi:namedview
     id="base"
     pagecolor="#ffffff"
     bordercolor="#666666"
     borderopacity="1.0"
     inkscape:pageopacity="0.0"
     inkscape:pageshadow="2"
     inkscape:zoom="1.4"
     inkscape:cx="492.27691"
     inkscape:cy="459.3157"
     inkscape:document-units="mm"
     inkscape:current-layer="layer1"
     showgrid="false"
     inkscape:window-width="1920"
     inkscape:window-height="1027"
     inkscape:window-x="-8"
     inkscape:window-y="-8"
     inkscape:window-maximized="1" />
  <metadata
     id="metadata5">
    <rdf:RDF>
      <cc:Work
         rdf:about="">
        <dc:format>image/svg+xml</dc:format>
        <dc:type
           rdf:resource="http://purl.org/dc/dcmitype/StillImage" />
        <dc:title></dc:title>
      </cc:Work>
    </rdf:RDF>
  </metadata>
  <g
     inkscape:label="Layer 1"
     inkscape:groupmode="layer"
     id="layer1">
    <path
       style="fill:#000000;stroke-width:0.63309532"
       d="m 185.19575,202.97668 c -0.25299,-0.40936 -1.31673,-0.5597 -2.5471,-0.36002 -1.57801,0.25607 -3.87396,-0.3651 -9.07157,-2.45432 -5.83317,-2.34469 -7.40499,-2.736 -9.71706,-2.41909 -2.50723,0.34363 -2.86204,0.21958 -3.8992,-1.36329 -1.01589,-1.55047 -1.07962,-2.46322 -0.58135,-8.32814 l 0.55963,-6.5868 -12.67393,0.38673 c -8.95292,0.2732 -13.47433,0.67255 -15.40014,1.36024 -2.51015,0.89632 -2.82147,0.88728 -3.92799,-0.11418 -1.04112,-0.94222 -1.48064,-0.98058 -3.28817,-0.28709 -1.14753,0.4403 -5.07781,1.03723 -8.73393,1.32651 -3.65612,0.28928 -8.26625,0.69892 -10.24473,0.9103 -3.59264,0.38385 -14.165976,-0.85446 -21.72658,-2.54456 -3.240601,-0.72439 -6.013982,-0.69613 -18.880299,0.19242 -13.393979,0.92499 -15.155056,1.17289 -15.737353,2.21524 -0.649346,1.16235 -0.824694,9.17789 -0.214106,9.78845 0.901861,0.90189 -1.412326,2.01631 -4.186954,2.01631 -2.199507,0 -4.807138,0.73202 -9.02101,2.53238 -6.736747,2.87827 -6.723032,2.87507 -6.723032,1.56047 0,-0.76471 -0.261053,-0.83222 -1.22457,-0.31653 -1.618464,0.86616 -11.437337,0.86616 -11.437337,0 0,-0.43562 -0.442231,-0.4187 -1.318857,0.0503 -1.052144,0.5631 -1.564263,0.48374 -2.53238,-0.3924 -1.699737,-1.53821 -1.592499,-6.28968 0.425718,-18.86264 2.120382,-13.20939 2.121302,-19.41743 0.0058,-38.91527 -1.652635,-15.23152 -1.685197,-16.10243 -0.644989,-17.25185 1.552071,-1.71501 2.572224,-1.50445 3.336778,0.68878 0.838064,2.40404 1.443289,2.46869 0.970272,0.10368 -0.242122,-1.21063 -0.0162,-2.1385 0.693194,-2.84799 2.827768,-2.82776 7.287652,-1.43294 7.303379,2.28413 0.01396,3.28793 0.661986,4.89189 1.976542,4.89189 1.314191,0 1.234249,-0.95105 -0.498932,-5.93572 -1.239162,-3.56385 -1.060691,-5.6774 0.612109,-7.24891 1.720269,-1.61612 3.131762,-1.75334 4.244453,-0.41261 0.439999,0.53015 1.284797,0.81005 1.87733,0.62199 0.592532,-0.18818 1.807554,0.23256 2.700044,0.93451 1.498841,1.17899 1.599687,1.18833 1.321001,0.12264 -0.335217,-1.28189 0.757995,-1.30423 9.600591,-0.19616 4.502379,0.56418 16.416037,0.42632 23.555184,-0.2726 4.065045,-0.39796 18.966713,0.44822 30.574494,1.73617 6.31772,0.701 7.57401,0.61839 25.32381,-1.66489 15.44677,-1.98705 19.71425,-2.33019 24.67874,-1.9844 6.64088,0.46253 9.21434,1.53944 8.66835,3.62735 -0.26936,1.02999 -0.16625,1.11563 0.5886,0.48913 0.50332,-0.41774 1.08853,-0.58611 1.30045,-0.37419 0.21185,0.21187 0.93793,-0.3173 1.61336,-1.17599 0.96172,-1.2226 1.81246,-1.56125 3.92193,-1.56125 1.48162,0 4.49183,-0.73061 6.68941,-1.62357 3.11826,-1.26707 4.56705,-1.52892 6.59837,-1.19266 3.52519,0.58357 5.06291,1.43752 4.29567,2.38555 -0.59575,0.73614 -3.9087,12.29429 -3.9087,13.63662 0,0.37929 0.85469,1.1316 1.89929,1.67177 l 1.89929,0.98218 v -1.947 c 0,-2.184 1.283,-5.01613 2.86845,-6.33197 0.90637,-0.75221 1.13683,-0.72322 1.65829,0.20862 0.46537,0.8316 0.88137,0.93463 1.79639,0.44491 2.34068,-1.25268 4.12317,-0.69095 6.95123,2.19064 2.55489,2.60324 2.71629,2.95772 2.03112,4.46147 -0.98853,2.16955 -0.93852,2.52329 0.22059,1.56125 1.54134,-1.27922 1.77124,-0.29767 0.69772,2.97889 -4.43882,13.54809 -6.23013,26.91189 -5.97514,44.57677 0.20338,14.0839 -0.0525,15.76656 -2.39689,15.76656 -0.66253,0 -0.71359,-0.37576 -0.22532,-1.65973 0.44241,-1.1636 0.41454,-1.9206 -0.0932,-2.53238 -1.99714,-2.40639 -3.50119,1.10889 -2.53956,5.93542 0.36447,1.82932 0.4991,3.75234 0.29915,4.27339 -0.4229,1.10206 -3.74197,1.28708 -4.3863,0.24452 z m 2.89205,-1.52863 c 0,-0.77629 -2.28013,-2.20018 -3.52325,-2.20018 -0.57913,0 -0.24077,1.68062 0.48439,2.40576 1.07592,1.07594 3.03886,0.94314 3.03886,-0.20564 z m -6.09172,-1.48164 c 1.01573,-1.12235 0.97317,-1.22029 -0.85956,-1.97945 -2.09704,-0.86861 -2.85569,-2.66725 -2.40891,-5.71124 0.26214,-1.78623 0.15703,-1.89119 -1.89636,-1.89119 -1.66275,0 -2.08907,-0.22109 -1.81307,-0.94037 0.30275,-0.78898 0.15777,-0.81445 -0.90122,-0.15828 -1.03469,0.64121 -1.36851,0.61101 -1.85276,-0.16749 -0.35697,-0.57389 -1.7896,-1.02791 -3.62097,-1.1475 -5.09919,-0.33294 -5.87455,-0.27762 -6.79314,0.48474 -1.26642,1.05104 -1.86539,5.34942 -0.9768,7.0098 0.64175,1.1991 1.08707,1.32451 3.44682,0.97065 2.1871,-0.32797 3.6723,-0.02 7.69918,1.59679 4.61647,1.85342 7.60864,2.92662 8.53151,3.05992 0.20713,0.0299 0.85758,-0.47691 1.44528,-1.12634 z M 29.473449,197.41657 c 2.249854,-2.16895 5.405269,-3.91405 5.405269,-2.98935 0,0.18121 -0.331155,1.05625 -0.735929,1.94463 -0.404765,0.88834 -0.591005,1.76012 -0.413865,1.93727 0.177142,0.17721 1.940889,-0.39387 3.919461,-1.26889 2.268974,-1.00343 4.759655,-1.59093 6.744832,-1.59093 3.751215,0 3.94568,-0.64237 1.202034,-3.97086 l -1.945372,-2.3601 H 38.0835 c -6.332388,0 -8.418537,-1.01876 -9.480433,-4.62977 -0.445305,-1.51426 -0.50673,-0.90669 -0.246159,2.435 0.335414,4.30168 0.292722,4.47751 -1.25877,5.18443 -0.929255,0.4234 -1.949466,1.68167 -2.421171,2.98616 -0.61247,1.69376 -1.177215,2.25442 -2.270774,2.25442 -0.800556,0 -1.485839,-0.3561 -1.522852,-0.79137 -0.03702,-0.43524 -0.108226,-1.36115 -0.158275,-2.05756 -0.05005,-0.69641 -0.423852,-1.26619 -0.830702,-1.26619 -1.29601,0 -6.54087,4.05077 -6.54087,5.05173 0,1.52429 1.349743,1.1301 3.600674,-1.05161 2.198401,-2.13077 3.293859,-2.12099 2.148477,0.02 -1.243943,2.32431 -0.831723,2.62819 3.56504,2.62819 4.078262,0 4.3524,-0.0992 6.805774,-2.46438 z m -13.250984,-3.53246 c 3.20646,-2.44757 7.256442,-3.79676 9.617867,-3.20407 l 1.554196,0.39008 -0.449317,-4.93273 c -0.247132,-2.71299 -0.704361,-6.3572 -1.016084,-8.09821 -0.311722,-1.74102 -0.840292,-13.99142 -1.1746,-27.22311 -0.33431,-13.23168 -0.77986,-24.84134 -0.990109,-25.79921 -0.445094,-2.0278 -2.630985,-2.85473 -4.666511,-1.76534 -1.246555,0.66713 -1.311624,1.06924 -0.956376,5.90997 0.209645,2.85677 0.473765,5.50485 0.586922,5.88463 0.113156,0.37978 -0.03323,1.07716 -0.325282,1.54971 -0.383219,0.62007 -0.646619,0.33976 -0.94633,-1.00704 -1.137996,-5.11384 -2.310449,-8.52276 -2.822457,-8.20631 -0.313491,0.19366 -0.891988,-0.1523 -1.285549,-0.76897 -0.615645,-0.96467 -0.665428,-0.90023 -0.356525,0.46151 0.525018,2.31441 1.426264,11.5083 2.309547,23.5604 0.931074,12.70422 0.456117,25.02556 -1.300396,33.7347 -1.196049,5.9303 -1.67491,11.71228 -0.970004,11.71228 0.171085,0 1.607043,-0.98923 3.191008,-2.19829 z m 169.966045,-2.15226 c 2.64929,-1.72536 3.4097,-1.85539 5.28186,-0.90318 0.98993,0.50348 1.94471,0.77058 2.12175,0.59354 0.17696,-0.17697 -0.0286,-2.39943 -0.45683,-4.93867 -1.38286,-8.19846 0.28552,-27.59136 3.53121,-41.04629 0.79764,-3.30657 1.37648,-6.08569 1.28632,-6.17586 -0.0902,-0.0903 -0.93996,1.26198 -1.88851,3.00473 -0.94852,1.74276 -1.98369,3.16864 -2.30035,3.16864 -0.59048,0 2.59842,-9.66362 4.2438,-12.86043 0.87238,-1.69493 0.81528,-1.89946 -1.17783,-4.21981 -2.8904,-3.36492 -4.4714,-3.28773 -6.20974,0.30322 -1.47202,3.04081 -2.92872,3.88112 -2.28553,1.31849 0.21136,-0.84175 0.14357,-2.18072 -0.15029,-2.97545 l -0.53455,-1.44501 -0.96485,1.55098 c -0.71906,1.15593 -1.15729,5.17937 -1.72042,15.79563 -0.41558,7.83456 -1.00782,18.81861 -1.31609,24.40899 -0.31629,5.73592 -1.12626,12.75662 -1.85908,16.1143 -0.71423,3.27248 -1.2986,6.88207 -1.2986,8.02131 0,1.99239 0.0785,2.05696 2.05756,1.69351 1.13165,-0.20788 2.7698,-0.84169 3.6403,-1.40864 z M 42.856217,183.43828 c 1.824237,-0.61156 8.643022,-1.28873 26.209648,-2.6029 9.54952,-0.7144 11.716425,-0.52706 25.956933,2.244 6.157722,1.19822 9.384642,1.19461 15.192572,-0.0174 2.61057,-0.54461 5.65094,-0.82053 6.75639,-0.61315 1.18019,0.22133 2.1874,0.0899 2.43986,-0.31862 0.23654,-0.38262 0.84912,-0.53481 1.36142,-0.33823 0.93075,0.35714 3.38096,-0.62637 4.0349,-1.61964 0.19042,-0.2892 1.37899,0.17598 2.64133,1.03375 2.14235,1.45577 2.45647,1.50303 4.71855,0.71004 1.53927,-0.53961 7.38949,-1.01303 16.03498,-1.29759 11.31296,-0.37239 13.98423,-0.29031 15.81848,0.48601 1.52531,0.64555 2.55928,0.7455 3.34768,0.32357 0.62739,-0.33579 1.77095,-0.42029 2.54126,-0.18768 1.11437,0.33633 0.88311,-0.1174 -1.13183,-2.22066 -1.3928,-1.45382 -3.47327,-3.22765 -4.62323,-3.94186 -1.15,-0.71419 -1.95783,-1.43156 -1.79525,-1.59418 0.42095,-0.42095 2.88452,0.96592 5.45927,3.07331 1.85779,1.52056 2.26247,1.64552 2.56214,0.79125 0.27037,-0.77081 0.78764,-0.39146 2.15323,1.57906 1.01567,1.46563 2.3106,2.5936 2.97744,2.5936 0.64905,0 1.71848,0.53839 2.37652,1.19643 1.17318,1.17317 1.20336,1.15164 1.5529,-1.10792 0.19617,-1.26739 0.0648,-6.72018 -0.29147,-12.11732 -0.35637,-5.39714 -0.7726,-16.73131 -0.92494,-25.18703 -0.24053,-13.34577 -0.14058,-15.63779 0.75673,-17.37308 0.79937,-1.54581 4.04131,-10.34155 4.04131,-10.9645 0,-0.0675 -1.06836,-0.30214 -2.3741,-0.52134 -2.6941,-0.45219 -10.48364,1.90335 -10.06908,3.04491 0.13384,0.36847 -0.0224,1.18691 -0.34843,1.81876 -0.47031,0.9131 -0.77746,0.99461 -1.4972,0.39728 -0.49801,-0.4133 -0.90547,-1.14394 -0.90547,-1.62362 0,-0.53875 -0.69651,-0.8721 -1.8221,-0.8721 -1.64782,0 -1.95846,0.3646 -3.2477,3.81201 -1.82553,4.88141 -2.76009,5.51172 -2.19241,1.47862 l 0.4328,-3.07479 -2.02139,2.69065 c -2.38717,3.17757 -2.97044,3.45059 -1.56487,0.73252 0.55693,-1.07696 0.91946,-2.05125 0.8056,-2.1651 -0.11395,-0.11396 -1.41686,0.61798 -2.89561,1.62627 -3.60082,2.45529 -3.41976,1.32116 0.29616,-1.85511 1.64163,-1.40323 2.77014,-2.76596 2.5078,-3.0283 -0.96485,-0.96484 -12.4054,-0.93849 -21.6365,0.0499 -27.26859,2.91957 -30.65654,3.12054 -38.618813,2.2909 -9.911456,-1.03271 -26.748428,-1.88326 -28.964136,-1.46317 -0.957544,0.18146 -1.741012,0.72183 -1.741012,1.20061 0,1.08322 -0.01246,1.08263 -2.406585,-0.11118 -1.533886,-0.7652 -3.755053,-0.94409 -10.068534,-0.81086 -4.455246,0.094 -9.337009,-0.0633 -10.848362,-0.34972 -2.690605,-0.5098 -2.732429,-0.49178 -2.006264,0.86507 0.995405,1.8599 0.312485,2.38405 -1.25637,0.96425 -1.744303,-1.57856 -1.596846,-0.92998 0.65802,2.89426 1.06046,1.79854 1.808608,3.38953 1.662598,3.53554 -0.146061,0.14606 -2.1857,-1.88002 -4.532638,-4.50233 -3.466846,-3.87357 -4.529616,-4.70193 -5.666436,-4.41661 -0.856817,0.2151 -1.717889,-0.0327 -2.221174,-0.63915 -1.156277,-1.39321 -2.222883,-1.23198 -3.135951,0.47412 -0.646822,1.20859 -0.562732,2.34235 0.481306,6.48923 1.001363,3.97738 1.420615,8.98377 2.011317,24.01761 0.41044,10.44607 0.644275,22.45814 0.519629,26.69345 l -0.226617,7.70053 2.724391,-0.18295 c 1.711348,-0.11488 3.256699,-0.68309 4.155919,-1.52787 1.681341,-1.57953 2.406858,-1.72796 1.892332,-0.38714 -0.36049,0.93942 0.748199,2.84085 1.656467,2.84085 0.253611,0 1.287077,-0.27689 2.29659,-0.61529 z m -7.852351,-56.44369 c -2.786347,-1.80195 -2.612194,-3.93436 0.340601,-4.17056 1.537922,-0.12312 2.274955,0.18919 2.957178,1.25219 2.431982,3.7898 0.58165,5.42722 -3.297779,2.91837 z m 2.931954,-1.48738 c -0.498251,-1.0935 -1.164471,-1.53054 -2.202275,-1.44465 -1.862802,0.15404 -1.887045,0.76181 -0.08076,2.02691 2.20043,1.54123 3.141349,1.30128 2.283132,-0.58226 z m 18.630325,-0.93441 c -3.437806,-0.83992 -5.302722,-3.35351 -3.111838,-4.19423 1.298394,-0.49825 8.964057,2.57593 8.964057,3.59486 0,1.04311 -2.843844,1.33438 -5.852219,0.59937 z m 3.233547,-1.31935 c -0.763976,-0.76395 -5.840852,-1.66978 -5.143724,-0.91774 0.2573,0.27759 1.539318,0.71248 2.848928,0.96644 1.30961,0.25398 2.509301,0.49454 2.665979,0.53459 0.156779,0.0402 -0.0099,-0.22232 -0.371183,-0.58329 z m 111.421598,-1.56464 c -0.50363,-1.31243 1.52146,-4.23242 2.76764,-3.99067 1.5568,0.30201 1.60448,1.39599 0.14182,3.2554 -1.50204,1.90951 -2.37433,2.12996 -2.90953,0.73527 z m 2.53568,-2.82471 c -0.34843,-0.34842 -1.47262,1.28414 -1.48685,2.15923 -0.005,0.32772 0.39434,0.0434 0.88818,-0.63209 0.49384,-0.67535 0.76322,-1.36258 0.59867,-1.52714 z M 28.220422,134.19732 c -0.291753,-2.04784 -0.660663,-2.69066 -1.544205,-2.69066 -1.104192,0 -1.147255,0.84237 -0.881946,17.25186 0.268344,16.59734 0.974256,27.86987 1.96659,31.40406 0.565973,2.01569 1.00725,-42.12093 0.459561,-45.96526 z M 182.5983,158.72977 c 0.55366,-7.13815 1.17048,-15.60887 1.37072,-18.8238 l 0.36408,-5.84539 -2.0795,-0.86307 c -1.79758,-0.74608 -2.15523,-0.73487 -2.63815,0.0828 -0.52595,0.89053 -0.32872,10.65928 0.64117,31.75947 0.23155,5.03745 0.62666,8.59861 0.87801,7.9137 0.25136,-0.68489 0.91,-7.08559 1.46367,-14.22374 z"
       id="path4496"
       inkscape:connector-curvature="0" />
    <path
       style="opacity:1;fill:#ffffff;fill-opacity:0.99534882;stroke:#2468fd;stroke-width:0;stroke-linecap:round;stroke-linejoin:round;stroke-miterlimit:4;stroke-dasharray:none;stroke-dashoffset:0;stroke-opacity:1;paint-order:stroke fill markers"
       d="m 151.69061,694.57247 c -2.10588,-0.8473 -4.40746,-6.28911 -4.07602,-9.63726 0.42288,-4.27181 -1.1562,-4.45853 -5.83177,-0.68958 -5.8616,4.725 -11.15145,6.75226 -19.61792,7.51829 l -7.57614,0.68547 -0.0542,-51.38089 c -0.0504,-47.80256 -1.17998,-87.52668 -3.52916,-124.11187 -1.37181,-21.36386 -2.74465,-32.66625 -5.5214,-45.45686 -1.32675,-6.11143 -2.69526,-12.72397 -3.04114,-14.69455 -1.05777,-6.02644 3.17533,-14.0948 7.39489,-14.0948 0.51571,0 2.65366,1.3637 4.751,3.03046 3.11089,2.47222 4.76197,3.03045 8.96316,3.03045 h 5.14983 l 16.17701,16.68759 c 20.76628,21.42169 21.87718,21.66986 11.21511,2.50531 -3.55461,-6.38921 -6.29802,-11.78696 -6.09647,-11.99499 0.20154,-0.20802 1.78423,0.81476 3.51707,2.27285 5.57168,4.68826 8.36574,2.89866 5.47679,-3.50789 -0.98293,-2.17974 -1.56413,-4.18617 -1.29157,-4.45873 0.27257,-0.27256 2.73018,-0.0247 5.46136,0.55085 2.73119,0.57553 19.2847,1.25757 36.7856,1.51565 37.51825,0.55326 38.85995,0.67296 46.63097,4.16039 6.12324,2.74795 7.41462,2.56184 8.08406,-1.16503 0.69801,-3.886 5.77936,-4.62217 27.6124,-4.00042 21.39396,0.60924 58.90668,2.83591 75.76144,4.49704 41.61547,4.10142 53.08286,3.60942 143.94674,-6.17596 22.5264,-2.42593 34.94242,-3.20283 57.07362,-3.57125 27.72767,-0.46159 36.84969,0.0966 37.58407,2.29972 0.20195,0.60585 -4.19438,5.58148 -9.76961,11.05695 -5.57524,5.47547 -10.13679,10.31448 -10.13679,10.75334 0,1.91301 4.10256,0.39996 11.614,-4.28329 4.44316,-2.77024 8.21924,-4.61449 8.39129,-4.09834 0.17205,0.51615 -0.84949,3.23216 -2.2701,6.03558 -4.7545,9.38257 -2.6288,9.86645 4.23667,0.9644 9.12909,-11.83713 8.42388,-11.73585 7.68342,-1.10341 -0.98231,14.10511 1.65903,12.465 8.86068,-5.50195 5.58029,-13.92193 6.01085,-14.44856 11.81292,-14.44856 5.01086,0 7.24981,1.25587 7.24981,4.06656 0,2.08646 4.15006,6.03497 6.34302,6.03497 1.98992,0 3.47742,-2.53257 4.56273,-7.76835 1.02477,-4.94374 5.48775,-7.5258 19.08756,-11.04307 7.8672,-2.03467 11.44368,-2.45579 17.36561,-2.04476 4.10185,0.2847 7.91936,0.9791 8.48336,1.54311 1.15279,1.15279 -1.20073,8.3636 -10.05356,30.80239 -3.04109,7.70808 -5.9482,16.57217 -6.46024,19.69797 -1.70211,10.39075 -0.49804,85.83056 2.12217,132.9625 1.58796,28.56382 2.35595,61.1865 1.56465,66.46326 l -0.72229,4.81659 -3.96721,-3.14208 c -2.18196,-1.72814 -5.67486,-3.6032 -7.76199,-4.16677 -4.42061,-1.19369 -8.03794,-4.31823 -13.5402,-11.69561 -4.08694,-5.47973 -6.34802,-6.47451 -8.38484,-3.689 -1.03423,1.41439 -2.17896,0.86187 -9.24387,-4.4617 -4.4349,-3.34181 -10.27186,-7.25022 -12.97101,-8.68537 -8.9758,-4.77248 -10.35987,-2.52328 -2.12395,3.45155 7.97776,5.78755 19.32384,15.85049 22.75218,20.17912 l 3.2036,4.04487 -3.18728,-0.63746 c -1.753,-0.3506 -5.54204,-0.0725 -8.42009,0.61788 -4.74038,1.1372 -5.94495,1.03176 -12.79974,-1.12047 -7.22249,-2.26768 -8.77394,-2.36701 -34.08751,-2.18225 -42.8698,0.3129 -77.27329,2.63142 -88.88338,5.99004 -6.18956,1.79055 -6.96885,1.60608 -16.48173,-3.90148 -5.96908,-3.45584 -7.48958,-3.96091 -8.8745,-2.94785 -4.85066,3.54823 -12.41756,6.35141 -15.38535,5.69958 -2.0932,-0.45975 -3.63719,-0.19881 -4.78905,0.80936 -1.24323,1.08812 -5.49936,1.64559 -15.84206,2.07498 -7.77818,0.32292 -17.11833,1.26089 -20.7559,2.08439 -19.05971,4.31484 -34.43839,3.97566 -62.42203,-1.37672 -46.45042,-8.88448 -60.10166,-9.68016 -105.7206,-6.162 -56.96483,4.39315 -78.39483,6.74102 -87.93092,9.63368 -5.39013,1.63504 -5.38185,1.63407 -7.29721,0.86343 z m -3.83897,-211.02303 c 2.19491,-2.19491 1.97529,-5.11328 -0.83978,-11.15907 -3.10353,-6.66529 -5.73941,-8.46675 -12.38849,-8.46675 -6.66202,0 -11.12301,3.19476 -10.10799,7.2389 1.06887,4.25871 4.46529,7.62813 10.96147,10.87431 6.94404,3.46998 10.0391,3.8483 12.37479,1.51261 z m 86.98301,-12.58607 c 0.81262,-0.67441 1.47749,-1.84321 1.47749,-2.59732 0,-3.1852 -23.34718,-13.39447 -31.34826,-13.70798 -4.32171,-0.16935 -7.03754,1.47499 -7.03754,4.26097 0,2.42851 4.55903,7.72887 8.32131,9.67442 7.67139,3.96703 24.93783,5.39845 28.587,2.36991 z m 422.12376,-12.21238 c 6.93456,-7.7129 7.39314,-13.10214 1.17777,-13.84113 -3.69981,-0.43989 -7.2149,2.0564 -9.66881,6.86646 -2.47076,4.84311 -2.5764,7.85257 -0.36151,10.29999 2.52321,2.78813 3.78073,2.31576 8.85255,-3.32532 z"
       id="path4498"
       inkscape:connector-curvature="0"
       transform="scale(0.26458333)" />
    <path
       style="opacity:1;fill:#f4f0c3;fill-opacity:0.99607843;stroke:#2468fd;stroke-width:0;stroke-linecap:round;stroke-linejoin:round;stroke-miterlimit:4;stroke-dasharray:none;stroke-dashoffset:0;stroke-opacity:1;paint-order:stroke fill markers"
       d="m 149.81911,693.38084 c -2.55136,-2.90584 -3.27331,-5.16519 -2.72674,-8.53331 0.21398,-1.3186 0.21094,-2.57555 -0.007,-2.79324 -0.59541,-0.59542 -3.05938,0.88579 -6.53147,3.92635 -1.71007,1.49754 -4.87036,3.38173 -7.02286,4.18709 -3.25401,1.21747 -13.41756,2.80841 -18.24972,2.85669 -1.16295,0.0116 -1.23933,-2.80276 -1.24514,-45.88048 -0.003,-25.24107 -0.17325,-49.58929 -0.37744,-54.10714 -0.20419,-4.51786 -0.69739,-17.375 -1.09599,-28.57143 -1.99725,-56.10274 -3.52008,-73.81778 -8.15426,-94.85903 -3.08802,-14.02097 -3.22933,-18.46679 -0.72292,-22.74365 3.21575,-5.48727 6.45796,-5.96567 11.40616,-1.68304 3.08368,2.66891 3.59242,2.85732 7.72201,2.85982 5.7295,0.003 7.19239,0.92989 15.96559,10.11085 16.99263,17.78242 23.21477,23.81072 22.73771,22.02933 -0.26302,-0.98214 -3.18239,-6.66197 -6.48748,-12.62183 -5.35778,-9.66136 -6.83351,-13.09245 -5.63111,-13.09245 0.20799,0 2.00471,1.28571 3.99272,2.85714 6.13437,4.84894 7.82954,3.57933 4.5698,-3.4226 -2.1662,-4.65301 -1.65239,-5.02096 5.21956,-3.73769 3.0641,0.57219 17.02234,1.08637 39.05405,1.43865 36.75759,0.58773 37.522,0.66463 45.15483,4.5427 4.82857,2.45329 5.74577,2.39487 6.47317,-0.41227 0.39365,-1.51912 1.43606,-2.79821 3.05614,-3.75 2.28689,-1.34355 3.58194,-1.43732 18.53015,-1.34171 22.54324,0.1442 58.21606,2.21461 90.35714,5.24425 33.69743,3.17634 45.80427,2.66673 118.92858,-5.00595 42.06839,-4.41409 48.48975,-4.95447 67.5,-5.6803 18.43877,-0.70401 39.74735,-0.0433 43.40081,1.34577 1.11446,0.42371 1.95816,1.28932 1.9606,2.01147 0.002,0.69723 -4.49765,5.65691 -10,11.02152 -8.77028,8.55074 -11.11726,11.31759 -9.60017,11.31759 0.70188,0 3.31018,-1.48872 10.80725,-6.16838 4.00553,-2.50025 7.80397,-4.54591 8.44099,-4.54591 1.40437,0 1.03985,1.45035 -1.7952,7.14286 -1.07611,2.16072 -2.20191,4.73214 -2.50178,5.71429 l -0.54522,1.78571 1.60044,-1.42857 c 0.88024,-0.78571 4.34745,-5.04872 7.70491,-9.47335 3.35747,-4.42463 6.24142,-7.90783 6.4088,-7.74045 0.16738,0.16738 -0.19101,4.12218 -0.79641,8.78845 -1.07234,8.26521 -0.94822,12.03671 0.36931,11.22242 1.0216,-0.63138 4.79545,-8.46372 7.50786,-15.58199 4.52609,-11.87797 6.40738,-14.00079 12.40784,-14.00079 4.14067,0 6.30339,1.26509 7.10099,4.15375 0.82231,2.97817 4.05045,6.56053 5.91182,6.56053 1.69166,0 4.07984,-5.07218 4.10147,-8.71098 0.0152,-2.56433 0.16326,-2.71144 5.19426,-5.16207 6.22879,-3.03409 15.57904,-5.78247 23.63534,-6.94729 4.71436,-0.68163 7.02139,-0.66743 11.33086,0.0697 2.97618,0.50909 5.82145,1.17915 6.32283,1.48902 1.01432,0.62689 -2.03604,10.03927 -9.13588,28.19016 -8.44667,21.59413 -8.14103,20.30904 -8.56082,35.99446 -0.58083,21.70273 1.34737,95.66158 3.4059,130.63789 2.3191,39.40355 2.05883,60.86765 -0.73804,60.86765 -0.33431,0 -2.27403,-1.42224 -4.31049,-3.16053 -2.49675,-2.13119 -4.87614,-3.44205 -7.30575,-4.0249 -4.359,-1.04571 -7.68875,-3.89132 -13.52587,-11.55929 -4.28593,-5.63023 -6.49226,-6.88729 -7.2179,-4.11242 -0.65266,2.49577 -2.98613,1.58825 -10.24357,-3.98389 -8.70189,-6.68115 -14.35767,-10.16123 -17.50208,-10.76925 l -2.40453,-0.46496 1.40551,1.58713 c 0.77303,0.87292 3.98732,3.38998 7.14286,5.59346 5.75238,4.01683 22.52306,19.94863 22.52306,21.39645 0,0.48726 -1.90763,0.74817 -5.17858,0.70827 -2.84821,-0.0347 -5.88065,0.32163 -6.73875,0.79195 -2.49894,1.36965 -6.77168,0.99978 -12.81293,-1.10916 l -5.62689,-1.96429 -28.92857,0.0447 c -42.06236,0.065 -76.59591,2.18473 -86.57943,5.31441 -7.68208,2.40822 -9.11009,2.1158 -18.77771,-3.84522 -5.68224,-3.50365 -7.19574,-3.83446 -9.14879,-1.99966 -3.13378,2.94403 -9.24666,5.1477 -13.9825,5.04065 -3.4013,-0.0769 -4.7432,0.20548 -5.88435,1.2382 -1.29447,1.17148 -2.82396,1.35202 -12.30273,1.45214 -7.59849,0.0803 -13.37901,0.57883 -19.39592,1.67291 -16.48658,2.99781 -21.50223,3.57181 -31.2547,3.57682 -11.13186,0.006 -16.36505,-0.68643 -42.81303,-5.66257 -32.00035,-6.0208 -38.49921,-6.7755 -58.07512,-6.74416 -12.64553,0.0202 -24.63842,0.62699 -45.71429,2.31279 -56.35568,4.50774 -70.98281,6.12784 -81.43896,9.02017 -3.53,0.97645 -6.78667,1.77935 -7.23705,1.78424 -0.45037,0.005 -1.8118,-1.12202 -3.02539,-2.50423 z m -2.9007,-210.23342 c 2.12015,-1.71679 2.02344,-5.39117 -0.27273,-10.36204 -1.94556,-4.21185 -4.92058,-7.43752 -7.44362,-8.07077 -2.76438,-0.69381 -9.83154,0.20277 -11.80846,1.4981 -5.69716,3.73292 -0.29124,11.99362 10.84747,16.57583 4.86469,2.00122 6.56243,2.07143 8.67734,0.35888 z m 85.31638,-11.79273 c 4.13366,-1.24138 4.23793,-3.36806 0.28742,-5.86191 -6.68779,-4.22181 -20.52372,-9.42047 -26.90524,-10.10928 -4.4119,-0.4762 -6.59646,0.89411 -6.59646,4.13777 0,7.69618 21.49277,15.35352 33.21428,11.83342 z m 422.15993,-10.57155 c 3.4986,-3.07181 6.78435,-8.0039 7.25198,-10.88563 0.31477,-1.93964 0.0761,-2.60242 -1.27853,-3.55128 -3.53415,-2.47541 -7.1123,-0.97029 -10.52367,4.4267 -2.80843,4.44309 -3.35397,7.30048 -1.92238,10.06887 1.45675,2.81705 3.2155,2.80111 6.4726,-0.0587 z"
       id="path4558"
       inkscape:connector-curvature="0"
       transform="scale(0.26458333)" />
    <path
       style="opacity:1;fill:#f4f0c3;fill-opacity:0.99607843;stroke:#2468fd;stroke-width:0;stroke-linecap:round;stroke-linejoin:round;stroke-miterlimit:4;stroke-dasharray:none;stroke-dashoffset:0;stroke-opacity:1;paint-order:stroke fill markers"
       d="m 683.75115,730.33411 c -2.74747,-1.60212 -2.07896,-11.17072 2.28455,-32.69952 5.00685,-24.7029 6.7814,-43.65933 10.31091,-110.14489 4.0054,-75.44986 5.45784,-95.26672 7.55259,-103.04604 0.41308,-1.53407 1.75637,-4.42304 2.98507,-6.41995 l 2.23402,-3.63073 1.46264,3.1555 c 1.22385,2.64034 1.44754,4.46741 1.37013,11.19122 -0.0509,4.41964 0.13435,8.03571 0.41161,8.03571 1.18353,0 4.48513,-4.35301 7.58461,-10 3.91958,-7.14114 5.56982,-9.11578 8.7502,-10.47036 2.10339,-0.89587 2.67458,-0.85658 5.45995,0.37552 5.61809,2.48515 16.11948,14.60918 16.11948,18.6102 0,1.01303 -1.62834,5.49107 -3.61854,9.95119 -4.3608,9.77276 -13.37075,36.45348 -13.94141,41.284 l -0.40919,3.46374 2.1665,-2.5 c 1.19157,-1.375 4.10121,-5.875 6.46585,-10 2.36464,-4.125 4.94851,-8.46429 5.74193,-9.64286 l 1.44259,-2.14285 -6e-4,1.78571 c -3.4e-4,0.98214 -1.13989,6.76786 -2.53234,12.85714 -10.17291,44.48692 -14.59623,75.2459 -16.79444,116.78572 -0.95491,18.04486 -0.47229,34.11408 1.45878,48.57143 2.59676,19.44126 2.62093,19.28297 -2.63307,17.24734 -9.93614,-3.84971 -10.93014,-4.09672 -13.5619,-3.37005 -1.40961,0.38921 -5.32877,2.29633 -8.70926,4.23805 -8.30076,4.76787 -19.04129,8.00722 -21.60066,6.51478 z"
       id="path4560"
       inkscape:connector-curvature="0"
       transform="scale(0.26458333)" />
    <path
       style="opacity:1;fill:#f4f0c3;fill-opacity:0.99607843;stroke:#2468fd;stroke-width:0;stroke-linecap:round;stroke-linejoin:round;stroke-miterlimit:4;stroke-dasharray:none;stroke-dashoffset:0;stroke-opacity:1;paint-order:stroke fill markers"
       d="m 48.610242,740.58494 c -0.850492,-0.8505 -0.503462,-13.52411 0.606944,-22.1658 0.595724,-4.63619 2.034617,-13.5723 3.19754,-19.85801 4.005708,-21.65125 5.384677,-34.70255 6.547981,-61.97362 0.649121,-15.2172 0.651213,-24.68926 0.009,-40.71429 -1.398888,-34.90596 -6.879522,-98.6231 -9.809849,-114.04805 -0.554544,-2.91906 -0.884403,-5.43125 -0.733021,-5.58263 0.151382,-0.15138 1.149422,0.87087 2.217866,2.27167 1.258918,1.65053 2.535476,2.54692 3.627096,2.54692 1.005133,0 2.152764,0.71471 2.845643,1.77217 1.679437,2.56315 4.745619,12.13973 7.436971,23.22783 2.552068,10.51426 3.601997,12.62381 4.991104,10.02824 1.185031,-2.21425 1.156886,-4.51245 -0.223407,-18.24253 -1.636125,-16.2749 -1.836561,-26.72262 -0.558691,-29.12185 1.185676,-2.22615 6.781113,-4.80672 10.422368,-4.80672 4.0651,0 7.858593,2.33728 9.525561,5.86897 2.00297,4.24355 2.6995,17.61888 4.771756,91.63103 2.095193,74.83139 3.370673,101.08488 5.760586,118.57143 1.93457,14.15489 4.62237,41.15643 4.17074,41.89914 -0.15738,0.2588 -1.9728,0.0216 -4.034261,-0.52724 -11.49091,-3.05904 -24.449675,1.48669 -42.92503,15.05744 -6.40346,4.70355 -6.995121,5.01767 -7.84689,4.1659 z"
       id="path4562"
       inkscape:connector-curvature="0"
       transform="scale(0.26458333)" />
    <path
       style="opacity:1;fill:#d0ca88;fill-opacity:1;stroke:#2468fd;stroke-width:0;stroke-linecap:round;stroke-linejoin:round;stroke-miterlimit:4;stroke-dasharray:none;stroke-dashoffset:0;stroke-opacity:1;paint-order:stroke fill markers"
       d="m 683.56292,652.16401 c -0.98296,-3.91642 -1.90945,-17.58065 -3.27125,-48.24574 -3.0727,-69.19134 -3.41879,-95.73623 -1.3086,-100.3676 1.30795,-2.87063 3.34247,-2.84532 10.84235,0.13489 6.66452,2.64827 6.87706,2.80244 6.87853,4.98955 0.007,10.47491 -7.96747,113.31818 -10.43148,134.52888 -1.14275,9.837 -1.87867,12.27054 -2.70955,8.96002 z"
       id="path4568"
       inkscape:connector-curvature="0"
       transform="scale(0.26458333)" />
    <path
       style="opacity:1;fill:#d0ca88;fill-opacity:1;stroke:#2468fd;stroke-width:0;stroke-linecap:round;stroke-linejoin:round;stroke-miterlimit:4;stroke-dasharray:none;stroke-dashoffset:0;stroke-opacity:1;paint-order:stroke fill markers"
       d="m 671.70548,756.82366 c -5.30357,-1.89777 -14.14286,-5.22334 -19.64286,-7.39015 -17.37262,-6.84422 -19.09062,-7.2247 -30.1224,-6.67106 -10.19669,0.51173 -11.39232,0.26593 -13.36718,-2.74809 -4.40326,-6.72022 -1.91035,-24.18138 4.07647,-28.55297 2.54445,-1.85797 10.66197,-2.28317 23.18211,-1.21431 9.38629,0.80132 14.43135,2.40442 15.8379,5.03258 1.06208,1.9845 3.17107,1.8872 6.93749,-0.32007 1.70416,-0.9987 3.12801,-1.5612 3.16411,-1.25 0.0361,0.3112 0.11646,1.51409 0.17857,2.67308 0.13454,2.51034 1.56132,3.07295 8.06119,3.17869 5.92587,0.0964 6.19077,0.52117 5.57306,8.93641 -0.83612,11.39055 1.26728,15.7084 9.69297,19.89774 2.74665,1.36566 4.74046,2.836 4.88182,3.60012 0.27162,1.46811 -6.21878,8.3732 -7.81549,8.31487 -0.54719,-0.02 -5.33419,-1.58907 -10.63776,-3.48684 z"
       id="path4570"
       inkscape:connector-curvature="0"
       transform="scale(0.26458333)" />
    <path
       style="opacity:1;fill:#d0ca88;fill-opacity:1;stroke:#2468fd;stroke-width:0;stroke-linecap:round;stroke-linejoin:round;stroke-miterlimit:4;stroke-dasharray:none;stroke-dashoffset:0;stroke-opacity:1;paint-order:stroke fill markers"
       d="m 702.69689,764.35122 c -1.22257,-0.54746 -2.91239,-1.7355 -3.75513,-2.64009 -1.75311,-1.88174 -3.06571,-5.94739 -2.44355,-7.5687 1.14633,-2.9873 13.21359,2.63269 14.21432,6.61992 0.86489,3.44601 -3.73522,5.50563 -8.01564,3.58887 z"
       id="path4572"
       inkscape:connector-curvature="0"
       transform="scale(0.26458333)" />
    <path
       style="opacity:1;fill:#d0ca88;fill-opacity:1;stroke:#2468fd;stroke-width:0;stroke-linecap:round;stroke-linejoin:round;stroke-miterlimit:4;stroke-dasharray:none;stroke-dashoffset:0;stroke-opacity:1;paint-order:stroke fill markers"
       d="m 103.94022,677.4897 c -3.37295,-16.43074 -5.371739,-52.51699 -6.607131,-119.28571 -1.067263,-57.68195 -0.705302,-62.49932 4.596031,-61.16877 2.52337,0.63333 3.95394,3.60634 4.77429,9.92194 1.62351,12.49881 0.39853,168.14459 -1.36048,172.86206 -0.50322,1.34959 -0.72205,0.98618 -1.40271,-2.32952 z"
       id="path4574"
       inkscape:connector-curvature="0"
       transform="scale(0.26458333)" />
    <path
       style="opacity:1;fill:#d0ca88;fill-opacity:1;stroke:#2468fd;stroke-width:0;stroke-linecap:round;stroke-linejoin:round;stroke-miterlimit:4;stroke-dasharray:none;stroke-dashoffset:0;stroke-opacity:1;paint-order:stroke fill markers"
       d="m 72.273896,754.55609 c -2.905979,-1.10587 -3.033938,-2.87749 -0.607188,-8.40662 1.199896,-2.73386 2.18163,-5.31856 2.18163,-5.74378 0,-2.2121 -4.029011,0.0776 -10.92263,6.20729 -7.902478,7.02679 -11.961373,8.14775 -12.520133,3.45774 -0.183544,-1.54059 0.59202,-2.72045 3.943628,-5.99938 6.972566,-6.82138 17.502762,-13.7245 20.935698,-13.7245 2.007829,0 3.563437,3.8394 3.563437,8.79493 0,4.81748 1.302508,6.20507 5.82459,6.20507 3.960552,0 5.392774,-1.36097 8.329706,-7.9153 2.505812,-5.59221 5.770532,-9.51006 9.517626,-11.42168 4.95768,-2.52922 5.13055,-3.2141 4.6314,-18.34851 -0.33619,-10.19344 -0.24996,-12.96005 0.36156,-11.60022 4.05604,9.01931 5.23522,10.94341 7.8814,12.8603 6.09662,4.41637 13.73502,5.65731 35.01808,5.68907 l 14.77865,0.0221 6.0681,7.57434 c 6.61097,8.25197 8.61889,11.73424 7.96112,13.80671 -0.62324,1.96363 -1.92647,2.28975 -11.8008,2.95308 -10.05663,0.67556 -15.62775,2.05495 -26.8787,6.65508 -4.27029,1.74597 -8.96952,3.39843 -10.44273,3.67213 -2.54903,0.47358 -2.67857,0.40569 -2.67857,-1.40371 0,-1.04574 1.01201,-4.46235 2.24892,-7.59247 1.23691,-3.13012 2.06202,-5.87803 1.83358,-6.10648 -1.5577,-1.55769 -11.20098,4.33845 -20.49327,12.53008 -9.65711,8.51323 -8.88725,8.24256 -23.946377,8.41911 -7.481521,0.0877 -13.664745,-0.15661 -14.788727,-0.58434 z"
       id="path4576"
       inkscape:connector-curvature="0"
       transform="scale(0.26458333)" />
    <flowRoot
       xml:space="preserve"
       id="flowRoot4578"
       style="fill:black;fill-opacity:1;stroke:none;font-family:'Viner Hand ITC';font-style:normal;font-weight:normal;font-size:48px;line-height:1.25;letter-spacing:0px;word-spacing:0px;-inkscape-font-specification:'Viner Hand ITC';font-stretch:normal;font-variant:normal;"><flowRegion
         id="flowRegion4580"
         style="font-size:48px;-inkscape-font-specification:'Viner Hand ITC';font-family:'Viner Hand ITC';font-weight:normal;font-style:normal;font-stretch:normal;font-variant:normal;"><rect
           id="rect4582"
           width="500"
           height="130.71428"
           x="141.42857"
           y="506.09113"
           style="font-size:48px;-inkscape-font-specification:'Viner Hand ITC';font-family:'Viner Hand ITC';font-weight:normal;font-style:normal;font-stretch:normal;font-variant:normal;" /></flowRegion><flowPara
         id="flowPara4584"></flowPara></flowRoot>    <flowRoot
       xml:space="preserve"
       id="flowRoot4586"
       style="font-style:normal;font-variant:normal;font-weight:normal;font-stretch:normal;font-size:64px;line-height:1.25;font-family:'Viner Hand ITC';-inkscape-font-specification:'Viner Hand ITC';text-align:center;letter-spacing:0px;word-spacing:0px;text-anchor:middle;fill:#000000;fill-opacity:1;stroke:none"
       transform="matrix(0.26458333,0,0,0.26458333,-14.552084,10.772321)"><flowRegion
         id="flowRegion4588"
         style="font-style:normal;font-variant:normal;font-weight:normal;font-stretch:normal;font-size:64px;font-family:'Viner Hand ITC';-inkscape-font-specification:'Viner Hand ITC';text-align:center;text-anchor:middle"><rect
           id="rect4590"
           width="594.28577"
           height="115.71429"
           x="152.14285"
           y="502.51968"
           style="font-style:normal;font-variant:normal;font-weight:normal;font-stretch:normal;font-size:64px;font-family:'Viner Hand ITC';-inkscape-font-specification:'Viner Hand ITC';text-align:center;text-anchor:middle" /></flowRegion><flowPara
         id="flowPara4592"
         style="font-size:64px">Heresy Defenders</flowPara></flowRoot>  </g>
</svg>
